<?xml version="1.0" standalone="no"?>
<!DOCTYPE svg PUBLIC "-//W3C//DTD SVG 20010904//EN"
 "http://www.w3.org/TR/2001/REC-SVG-20010904/DTD/svg10.dtd">
<svg version="1.0" xmlns="http://www.w3.org/2000/svg"
 width="333.000000pt" height="333.000000pt" viewBox="0 0 333.000000 333.000000"
 preserveAspectRatio="xMidYMid meet">
<metadata>
Created by potrace 1.11, written by Peter Selinger 2001-2013
</metadata>
<g transform="translate(0.000000,333.000000) scale(0.100000,-0.100000)"
fill="#000000" stroke="none">
<path d="M255 2173 c-25 -6 -83 -49 -113 -82 -48 -54 -92 -171 -117 -310 -13
-70 -13 -281 -1 -336 21 -94 29 -121 46 -158 22 -46 57 -88 95 -113 60 -39
228 -19 459 56 85 28 169 53 186 55 17 2 64 -5 103 -16 40 -11 104 -29 142
-39 85 -24 132 -25 184 -4 73 29 59 88 -29 120 -50 18 -68 31 -102 73 -21 25
-78 30 -78 7 0 -53 58 -102 163 -137 40 -14 45 -18 32 -29 -24 -20 -61 -16
-220 25 -82 21 -164 37 -181 37 -16 -1 -84 -20 -150 -43 -272 -94 -300 -102
-326 -96 -48 12 -42 43 23 106 85 84 96 125 73 256 -8 44 -17 114 -19 156 -4
64 -1 83 18 120 43 85 139 102 268 48 41 -17 88 -35 104 -40 47 -16 186 -18
247 -4 75 17 90 8 84 -51 -4 -31 -2 -44 7 -45 6 0 84 -2 172 -4 88 -2 259 -6
380 -9 182 -5 497 -12 875 -20 l65 -1 3 -55 c3 -53 5 -57 45 -82 30 -19 50
-25 67 -21 18 5 22 3 17 -10 -7 -18 21 -33 36 -18 7 7 6 15 -2 24 -9 12 -6 17
20 26 18 6 33 11 35 11 1 0 0 -9 -3 -20 -6 -22 12 -27 37 -10 13 9 12 12 -5
22 -19 11 -19 11 0 19 32 12 46 10 43 -7 -4 -20 12 -27 31 -15 12 8 12 12 3
24 -11 12 -7 17 19 26 26 9 30 8 25 -4 -7 -19 9 -28 35 -20 19 6 19 8 4 25
-15 16 -14 18 7 24 38 10 46 7 41 -14 -4 -16 -2 -19 13 -14 34 13 37 17 19 30
-17 12 -16 14 9 24 38 14 51 13 37 -3 -19 -24 9 -36 39 -17 13 8 12 11 -4 23
-17 12 -15 14 24 26 33 10 45 20 56 46 8 19 14 45 14 58 0 29 -47 75 -80 77
-55 5 -71 -2 -117 -45 -26 -25 -51 -45 -56 -45 -4 0 -42 16 -83 36 -60 30 -87
37 -136 38 l-62 1 -9 -35 c-12 -46 -24 -60 -72 -80 -32 -14 -65 -17 -170 -15
-71 2 -292 6 -490 10 -764 13 -746 12 -768 33 -28 28 -31 81 -8 119 26 42 87
72 175 87 81 13 91 27 55 77 -28 39 -113 80 -171 80 -23 1 -86 -13 -138 -30
-127 -43 -246 -71 -296 -71 -53 0 -124 22 -226 69 -134 62 -174 73 -283 77
-55 1 -109 0 -120 -3z"/>
<path d="M1150 1695 c0 -9 9 -19 19 -22 18 -5 18 -7 4 -41 -8 -20 -35 -65 -60
-99 l-45 -63 29 0 c22 0 34 9 55 43 56 85 149 170 163 147 16 -26 -31 -85 -75
-93 -37 -8 -60 -18 -60 -28 0 -5 7 -9 15 -9 8 0 22 -12 32 -27 9 -16 18 -29
19 -31 4 -6 59 -10 66 -6 13 8 -4 34 -22 34 -36 0 -32 49 5 50 6 0 20 15 33
33 35 52 26 127 -14 127 -7 0 -32 -15 -56 -33 l-43 -33 0 30 c0 28 -4 31 -32
34 -25 3 -33 -1 -33 -13z"/>
<path d="M1517 1690 c3 -11 12 -20 19 -20 28 0 8 -47 -57 -139 -22 -30 -39
-57 -39 -61 0 -4 12 -5 26 -2 16 3 35 20 52 46 34 52 88 112 126 138 36 26 52
8 30 -34 -16 -31 -37 -45 -79 -52 -35 -6 -70 -36 -43 -36 17 0 41 -20 57 -47
4 -9 23 -17 40 -18 24 -1 31 2 31 17 0 11 -7 18 -20 18 -10 0 -23 8 -29 17 -7
14 -4 20 20 30 34 14 69 67 69 105 0 24 -22 58 -38 58 -12 0 -76 -42 -90 -59
-12 -14 -13 -14 -8 3 12 35 -3 56 -39 56 -28 0 -32 -3 -28 -20z"/>
<path d="M570 1689 c-55 -22 -100 -89 -100 -150 0 -45 47 -82 95 -73 41 7 92
51 112 95 9 21 23 39 30 39 7 0 13 9 13 20 0 11 -7 20 -15 20 -8 0 -15 4 -15
10 0 5 -10 18 -22 30 -23 22 -58 25 -98 9z m62 -59 c-3 -18 0 -30 7 -30 21 0
11 -26 -21 -57 -45 -42 -72 -49 -97 -24 -17 17 -19 25 -10 50 18 51 85 106
115 94 6 -2 8 -17 6 -33z"/>
<path d="M767 1635 c-15 -30 -34 -55 -42 -55 -8 0 -15 -7 -15 -15 0 -8 4 -15
10 -15 5 0 -2 -26 -16 -57 -33 -76 -38 -120 -13 -128 54 -18 133 102 104 158
-12 24 -11 26 8 29 30 4 32 26 3 30 l-26 3 25 53 c22 47 22 52 7 52 -12 0 -27
-20 -45 -55z m3 -140 c0 -25 -38 -95 -52 -95 -13 0 -9 19 13 71 23 54 39 63
39 24z"/>
<path d="M899 1635 c-16 -38 -28 -55 -41 -55 -20 0 -23 -11 -8 -26 6 -6 1 -28
-15 -61 -31 -68 -37 -109 -19 -124 35 -29 114 56 114 123 0 20 -6 40 -12 44
-9 6 -5 10 11 14 34 8 39 30 7 30 l-26 0 25 55 c22 51 23 55 5 55 -13 0 -25
-16 -41 -55z m1 -141 c0 -29 -36 -94 -51 -94 -12 0 -5 27 18 83 19 43 33 48
33 11z"/>
<path d="M2001 1638 c-13 -29 -35 -77 -48 -107 -20 -43 -22 -55 -11 -62 9 -6
16 -2 22 11 10 23 26 27 26 6 0 -19 48 -27 54 -9 9 22 7 26 -8 20 -25 -10 -25
20 0 44 16 15 21 26 14 33 -7 7 -14 6 -22 -2 -26 -26 -26 -9 2 53 26 58 27 65
11 65 -12 0 -25 -17 -40 -52z"/>
<path d="M2233 1588 c-17 -20 -20 -50 -5 -55 6 -3 12 0 12 6 0 6 5 11 11 11 5
0 3 -10 -5 -22 -23 -32 -20 -47 11 -59 20 -7 28 -6 35 3 11 18 10 28 -3 26
-21 -5 -20 20 2 40 24 23 17 46 -11 37 -11 -4 -22 0 -28 10 -7 13 -11 14 -19
3z"/>
<path d="M2355 1574 c-14 -15 -25 -30 -25 -34 0 -15 14 -19 27 -9 10 9 13 8
13 -4 0 -15 -23 -34 -45 -36 -5 -1 -10 -7 -10 -13 0 -19 57 -10 73 10 7 10 10
30 7 51 -3 19 0 40 6 47 22 27 -21 15 -46 -12z"/>
<path d="M1711 1554 c-28 -36 -27 -72 2 -83 30 -11 58 3 80 41 17 29 17 32 1
49 -24 27 -59 24 -83 -7z m44 -44 c-7 -11 -35 -14 -35 -4 0 3 5 15 11 26 10
19 12 20 21 5 5 -10 6 -22 3 -27z"/>
<path d="M1854 1562 c-12 -9 -27 -27 -33 -39 -17 -33 16 -65 55 -54 37 10 43
31 8 28 -32 -2 -41 14 -19 37 21 21 36 21 28 0 -5 -13 -3 -15 13 -6 11 6 20
20 21 31 1 17 -4 21 -25 21 -15 0 -37 -8 -48 -18z"/>
<path d="M2111 1561 c-12 -12 -21 -24 -22 -28 0 -5 -2 -15 -4 -24 -4 -24 7
-37 35 -39 41 -4 50 -1 50 16 0 11 -6 14 -17 10 -10 -3 -5 5 10 18 36 29 33
60 -5 64 -17 2 -34 -4 -47 -17z m33 -25 c-10 -8 -21 -12 -24 -10 -5 6 21 24
34 24 6 0 1 -6 -10 -14z"/>
</g>
</svg>
