<svg id="Layer_2" data-name="Layer 2" xmlns="http://www.w3.org/2000/svg" viewBox="0 0 332 105"><defs><style>.cls-1{fill:#231f20;}.cls-2{fill:#cb2027;}</style></defs><title>Artboard 6</title><path class="cls-1" d="M61.76,49.38a7.2,7.2,0,0,1,2.6.49,8.67,8.67,0,0,1,2.33,1.34,7.84,7.84,0,0,1,1.77,2,7,7,0,0,1,1,2.47h2c.14.59.24,1.18.32,1.77s.14,1.18.19,1.77q-.48,0-.93,0c-.31,0-.62,0-.93,0l-.49,0-.49.05A18.12,18.12,0,0,1,68,62.37a20.46,20.46,0,0,1-1.75,3.13A22.43,22.43,0,0,1,64,68.37,16.17,16.17,0,0,1,61.2,70.7a13.89,13.89,0,0,1-3.13,1.56,10.07,10.07,0,0,1-3.35.58,7.34,7.34,0,0,1-7.14-5.08,10,10,0,0,1,0-6.43q.25-.75.58-1.48t.7-1.51a12.19,12.19,0,0,1,2.63-3.85,25.49,25.49,0,0,1,3.62-2.94,9.61,9.61,0,0,1,2.43-1.22q1.31-.44,2.63-.78a4.32,4.32,0,0,1,.78-.14Q61.39,49.38,61.76,49.38ZM50.3,64.44a5.83,5.83,0,0,0,.29,1.85,4.42,4.42,0,0,0,.85,1.51,4,4,0,0,0,1.36,1,4.31,4.31,0,0,0,1.85.37,8,8,0,0,0,3.66-.9A13.1,13.1,0,0,0,61.57,66a16,16,0,0,0,2.53-3.2,12.29,12.29,0,0,0,1.46-3.45q-.58-.07-1.1-.17a3.23,3.23,0,0,1-.94-.32,1.7,1.7,0,0,1-.66-.66A2.38,2.38,0,0,1,62.61,57,3.87,3.87,0,0,1,63.15,55q.54-1,1-1.84a5.23,5.23,0,0,0-2.18-.48,7.64,7.64,0,0,0-3.13.7,13.78,13.78,0,0,0-3,1.8,16.72,16.72,0,0,0-2.52,2.46,13.72,13.72,0,0,0-1.77,2.69q-.47,1-.87,2A5.66,5.66,0,0,0,50.3,64.44Z"/><path class="cls-1" d="M82.47,50.16q-.48,1.5-1.07,2.92t-1.22,2.84q-.63,1.41-1.29,2.82t-1.21,2.84q1.32,0,2.65.07t2.65.07q-.27.68-.58,1.31t-.65,1.27q-1.16-.1-2.31-.14T77.13,64l1.12,1.34a11.42,11.42,0,0,1,1,1.38,7.15,7.15,0,0,1,.68,1.53A5.78,5.78,0,0,1,80.15,70a8.4,8.4,0,0,1-.44,2.52,18.8,18.8,0,0,1-1.19,2.86,22.43,22.43,0,0,1-1.75,2.86,17.17,17.17,0,0,1-2.16,2.48,11.33,11.33,0,0,1-2.4,1.75,5.15,5.15,0,0,1-2.43.66,2.15,2.15,0,0,1-1.09-.25,2.28,2.28,0,0,1-.73-.66,2.59,2.59,0,0,1-.41-.94,5,5,0,0,1-.12-1.1A13.24,13.24,0,0,1,68.12,76a37.67,37.67,0,0,1,1.58-4q.9-1.94,1.82-3.84a19.41,19.41,0,0,0,1.39-3.88,9,9,0,0,0-1.21-.53l-1.24-.42a4.26,4.26,0,0,1,.66-1q.39-.44.83-.88a2.94,2.94,0,0,1,1.17-.1q.59.07,1.17.17.54-1.33,1.19-2.58t1.26-2.52q.61-1.26,1.19-2.52a25.58,25.58,0,0,0,1-2.58.82.82,0,0,1,.51-.58A4.48,4.48,0,0,1,81,50.4,6.5,6.5,0,0,0,82.47,50.16ZM70.36,80a1.19,1.19,0,0,0,0,.2,1.32,1.32,0,0,1,0,.2,6.52,6.52,0,0,0,2.4-1.68,18.31,18.31,0,0,0,2.26-2.86,18.74,18.74,0,0,0,1.68-3.25,8,8,0,0,0,.66-2.86,4.05,4.05,0,0,0-.53-2,9.34,9.34,0,0,0-1.24-1.72q-.61,1.39-1.5,3.3T72.4,73.23q-.85,2-1.44,3.77A10.15,10.15,0,0,0,70.36,80Z"/><path class="cls-1" d="M95.56,50.16q-.48,1.5-1.07,2.92t-1.22,2.84q-.63,1.41-1.29,2.82t-1.21,2.84q1.33,0,2.65.07t2.65.07q-.27.68-.58,1.31c-.2.42-.42.84-.65,1.27q-1.16-.1-2.31-.14T90.22,64l1.12,1.34a11.31,11.31,0,0,1,1,1.38A7.16,7.16,0,0,1,93,68.28,5.78,5.78,0,0,1,93.24,70a8.4,8.4,0,0,1-.44,2.52,18.81,18.81,0,0,1-1.19,2.86,22.55,22.55,0,0,1-1.75,2.86,17.17,17.17,0,0,1-2.16,2.48,11.31,11.31,0,0,1-2.4,1.75,5.14,5.14,0,0,1-2.43.66,2.15,2.15,0,0,1-1.09-.25,2.28,2.28,0,0,1-.73-.66,2.61,2.61,0,0,1-.41-.94,5,5,0,0,1-.12-1.1A13.25,13.25,0,0,1,81.21,76a37.88,37.88,0,0,1,1.58-4q.9-1.94,1.82-3.84A19.29,19.29,0,0,0,86,64.27a8.85,8.85,0,0,0-1.21-.53l-1.24-.42a4.29,4.29,0,0,1,.66-1q.39-.44.83-.88a2.93,2.93,0,0,1,1.17-.1q.59.07,1.17.17.54-1.33,1.19-2.58t1.26-2.52q.61-1.26,1.19-2.52a25.59,25.59,0,0,0,1-2.58.82.82,0,0,1,.51-.58A4.47,4.47,0,0,1,94,50.4,6.51,6.51,0,0,0,95.56,50.16ZM83.45,80a1.18,1.18,0,0,0,0,.2,1.32,1.32,0,0,1,0,.2,6.51,6.51,0,0,0,2.4-1.68,18.25,18.25,0,0,0,2.26-2.86,18.88,18.88,0,0,0,1.68-3.25,8,8,0,0,0,.66-2.86,4,4,0,0,0-.53-2,9.33,9.33,0,0,0-1.24-1.72q-.61,1.39-1.5,3.3t-1.73,3.86q-.85,2-1.44,3.77A10.14,10.14,0,0,0,83.45,80Z"/><path class="cls-1" d="M115,49a.81.81,0,0,1,.14-.43.42.42,0,0,1,.37-.22.67.67,0,0,1,.34.14l2.41,0a10.26,10.26,0,0,1,2.35.29,1.51,1.51,0,0,1,1.11.88,3.25,3.25,0,0,1,.25,1.43,5.31,5.31,0,0,1-.2,1.46q-.21.71-.48,1.43l-.54,1.41a10.51,10.51,0,0,0-.44,1.41l1.39-1.41q.82-.83,1.79-1.73t2-1.79a25.77,25.77,0,0,1,2.11-1.6,13.54,13.54,0,0,1,2-1.16,4.51,4.51,0,0,1,1.84-.44,3.05,3.05,0,0,1,1.72.46,3.58,3.58,0,0,1,1.12,1.17,5.51,5.51,0,0,1,.63,1.6,7.66,7.66,0,0,1,.21,1.73,10.62,10.62,0,0,1-.82,4.13,17.37,17.37,0,0,1-2.11,3.69A10.37,10.37,0,0,1,129,64.39a12.07,12.07,0,0,1-4,1.44,14.61,14.61,0,0,1,1.24,1.65q.56.87,1,1.79a2.85,2.85,0,0,0,.51,0c.27,0,.54,0,.8,0s.53,0,.8,0a3.47,3.47,0,0,1,1.16.17q.3.82.65,1.6a5.89,5.89,0,0,1,.44,1.67h-3.21c-.62,0-1.22,0-1.79,0a6.77,6.77,0,0,1-1.26-.14.8.8,0,0,1-.58-.49q-.21-.42-.37-.73a21,21,0,0,0-1.53-2.55,13.73,13.73,0,0,0-2-2.21,4.06,4.06,0,0,0-1.68-.26,5.17,5.17,0,0,1-1.72-.19,9.61,9.61,0,0,1,1.55-1.7A17.61,17.61,0,0,1,120.92,63a5.83,5.83,0,0,1,1.09,0q.54,0,1.09,0a7.28,7.28,0,0,0,3.23-.78,10.81,10.81,0,0,0,4.93-4.93,7.21,7.21,0,0,0,.78-3.2,3,3,0,0,0-.14-.9,1.9,1.9,0,0,0-.48-.77l-.31-.1a1.3,1.3,0,0,0-.31,0,4.12,4.12,0,0,0-2.16.82A24.11,24.11,0,0,0,126.14,55q-1.27,1.11-2.38,2.24L122,59q-1.36,1.43-2.81,2.89A21.89,21.89,0,0,0,116.7,65q-.2.31-.56.9l-.8,1.34q-.44.75-.93,1.55t-1,1.46q-.48.66-.88,1.14a1.69,1.69,0,0,1-.65.54,12.22,12.22,0,0,1-2.28.53,14.63,14.63,0,0,1-2.35.12,8.81,8.81,0,0,1,.88-1.7q.68-1.09,1.51-2.26t1.65-2.24q.82-1.07,1.29-1.65a30,30,0,0,0,3.48-5.42,41.23,41.23,0,0,0,2.4-6,2.34,2.34,0,0,0,.1-.68,2.13,2.13,0,0,0-.1-.68,3,3,0,0,0-1-.17,5.87,5.87,0,0,0-.88.07,5.74,5.74,0,0,1-.88.07q-.07-.17-.2-.59t-.27-.88c-.09-.31-.17-.59-.24-.87A2.81,2.81,0,0,1,115,49Z"/><path class="cls-1" d="M151.62,49a.81.81,0,0,1,.14-.43.42.42,0,0,1,.37-.22.66.66,0,0,1,.34.14l2.41,0a10.25,10.25,0,0,1,2.35.29,1.51,1.51,0,0,1,1.11.88,3.25,3.25,0,0,1,.26,1.43,5.27,5.27,0,0,1-.21,1.46q-.2.71-.48,1.43l-.54,1.41a10.5,10.5,0,0,0-.44,1.41l1.39-1.41q.82-.83,1.78-1.73t2-1.79a26,26,0,0,1,2.11-1.6,13.48,13.48,0,0,1,2-1.16,4.51,4.51,0,0,1,1.84-.44,3.05,3.05,0,0,1,1.72.46,3.59,3.59,0,0,1,1.12,1.17,5.53,5.53,0,0,1,.63,1.6,7.71,7.71,0,0,1,.2,1.73,10.6,10.6,0,0,1-.82,4.13,17.28,17.28,0,0,1-2.11,3.69,10.36,10.36,0,0,1-3.18,2.87,12.06,12.06,0,0,1-4,1.44,14.74,14.74,0,0,1,1.24,1.65q.56.87,1,1.79a2.85,2.85,0,0,0,.51,0q.41,0,.8,0c.26,0,.53,0,.8,0a3.47,3.47,0,0,1,1.16.17q.3.82.65,1.6a5.89,5.89,0,0,1,.44,1.67h-3.21q-.94,0-1.79,0A6.78,6.78,0,0,1,162,72.5a.8.8,0,0,1-.58-.49c-.14-.28-.26-.53-.37-.73a20.94,20.94,0,0,0-1.53-2.55,13.67,13.67,0,0,0-2-2.21,4.06,4.06,0,0,0-1.68-.26,5.17,5.17,0,0,1-1.72-.19,9.61,9.61,0,0,1,1.55-1.7A17.62,17.62,0,0,1,157.57,63a5.83,5.83,0,0,1,1.09,0c.36,0,.73,0,1.09,0A7.27,7.27,0,0,0,163,62.2a10.82,10.82,0,0,0,4.93-4.93,7.23,7.23,0,0,0,.78-3.2,2.94,2.94,0,0,0-.14-.9,1.88,1.88,0,0,0-.48-.77l-.31-.1a1.31,1.31,0,0,0-.31,0,4.12,4.12,0,0,0-2.16.82A24,24,0,0,0,162.79,55q-1.28,1.11-2.38,2.24L158.69,59q-1.36,1.43-2.8,2.89A21.75,21.75,0,0,0,153.35,65q-.21.31-.56.9l-.8,1.34q-.44.75-.93,1.55t-1,1.46q-.48.66-.88,1.14a1.68,1.68,0,0,1-.65.54,12.2,12.2,0,0,1-2.28.53,14.63,14.63,0,0,1-2.35.12,8.77,8.77,0,0,1,.88-1.7q.68-1.09,1.51-2.26T148,66.36q.82-1.07,1.29-1.65a29.91,29.91,0,0,0,3.48-5.42,41.12,41.12,0,0,0,2.4-6,2.38,2.38,0,0,0,.1-.68,2.16,2.16,0,0,0-.1-.68,3,3,0,0,0-1-.17,5.85,5.85,0,0,0-.88.07,5.74,5.74,0,0,1-.88.07q-.07-.17-.2-.59c-.09-.28-.18-.58-.27-.88s-.17-.59-.24-.87A2.9,2.9,0,0,1,151.62,49Z"/><path class="cls-1" d="M175.59,61.24a3.73,3.73,0,0,1,2.36.68A4.34,4.34,0,0,1,179.3,64a4.65,4.65,0,0,0,.88.12l.88,0q-.1.58-.22,1.1a8.16,8.16,0,0,1-.32,1.07,3.21,3.21,0,0,1-.76.39,1,1,0,0,0-.6.56q-.48,1-.9,2a5,5,0,0,1-1.31,1.78,7.34,7.34,0,0,1-1.67,1,4.44,4.44,0,0,1-1.87.46,4.77,4.77,0,0,1-3.09-.93,3.6,3.6,0,0,1-1.16-3,7.38,7.38,0,0,1,.49-2.58,8.47,8.47,0,0,1,1.36-2.4,7.36,7.36,0,0,1,2-1.75A5,5,0,0,1,175.59,61.24Zm-2.21,8.67a2.11,2.11,0,0,0,1.12-.29,3.58,3.58,0,0,0,.87-.75,5.93,5.93,0,0,0,.68-1q.29-.53.53-1a4.56,4.56,0,0,1-.88-.58,1.61,1.61,0,0,1-.44-.61,2.32,2.32,0,0,1-.15-.78q0-.44,0-1a4.36,4.36,0,0,0-2.26,1.6,4.24,4.24,0,0,0-.9,2.62,2.69,2.69,0,0,0,.29,1.31A1.22,1.22,0,0,0,173.38,69.91Z"/><path class="cls-1" d="M190.28,61.11a2.55,2.55,0,0,1,1.67.53,2,2,0,0,1,.65,1.62,7.31,7.31,0,0,1-.05.8,4.12,4.12,0,0,1-.2.9,3.49,3.49,0,0,1-.39.8,1.07,1.07,0,0,1-.58.46l-.92.31a3.22,3.22,0,0,1-1,.14h-.22a.68.68,0,0,1-.22,0,11.32,11.32,0,0,0,.58-1.38,4.53,4.53,0,0,0,.24-1.48,3.76,3.76,0,0,0-1.89.56,7.55,7.55,0,0,0-1.77,1.43,9.06,9.06,0,0,0-1.34,1.89,4.92,4.92,0,0,0-.61,1.94,10.69,10.69,0,0,0,3.26.37q1.63-.07,3.26-.07c-.14.36-.28.71-.42,1a9.67,9.67,0,0,1-.53,1,1,1,0,0,1-.71.49,8,8,0,0,1-.92.05l-2.12,0a9.05,9.05,0,0,1-2.19-.22,3.52,3.52,0,0,1-1.7-.9,2.76,2.76,0,0,1-.68-2.06,1.82,1.82,0,0,1,0-.41,8.21,8.21,0,0,1,1.07-2.84,10.59,10.59,0,0,1,2-2.5,10.84,10.84,0,0,1,2.65-1.77A6.92,6.92,0,0,1,190.28,61.11Z"/><path class="cls-1" d="M202.14,51.28a2.77,2.77,0,0,1,1.55-.61c.58,0,1.15-.1,1.72-.17a12.67,12.67,0,0,1-.87,2.4q-.56,1.17-1,2.36A50.62,50.62,0,0,1,201.45,60a50.62,50.62,0,0,0-2.06,4.74,22.28,22.28,0,0,0,2.16-1.56,17.26,17.26,0,0,1,2.19-1.53l.2,0a1.43,1.43,0,0,1,.55.15,6.06,6.06,0,0,1,.7.37,4,4,0,0,1,.61.46.64.64,0,0,1,.25.41.49.49,0,0,1-.25.41l-.42.27a23.58,23.58,0,0,0-2.16,1.48q-1,.8-2.06,1.62,0,.24,0,.46c0,.15,0,.3,0,.46a4.59,4.59,0,0,0,.14,1.12,2,2,0,0,0,.54,1,4.07,4.07,0,0,0,1.48.2q.76,0,1.51,0a1.17,1.17,0,0,1,.2.41,6.85,6.85,0,0,1-.49,1.09,9.67,9.67,0,0,0-.53,1.09,4.71,4.71,0,0,0-1,0c-.33,0-.65,0-1,0a7.52,7.52,0,0,1-1.27-.12,2,2,0,0,1-1.14-.59A2.87,2.87,0,0,1,199,71a6.85,6.85,0,0,1-.39-1.12,11.16,11.16,0,0,1-.24-1.17q-.08-.58-.12-1.05A12.34,12.34,0,0,0,197,69.93l-1.09,2.46h-3q.21-.68.41-1.24t.51-1.24q.68-1.53,1.38-3t1.38-3q1.43-3.19,2.81-6.34T202.14,51.28Z"/><path class="cls-1" d="M208.26,69a6.87,6.87,0,0,1,.65-2.92,8.61,8.61,0,0,1,1.73-2.48,8.52,8.52,0,0,1,2.5-1.73,6.91,6.91,0,0,1,2.91-.65,4.86,4.86,0,0,1,1.07.12,3.47,3.47,0,0,1,1,.37,2,2,0,0,1,.71.7,2,2,0,0,1,.27,1.05,3.82,3.82,0,0,1-.7,2.23,8,8,0,0,1-1.72,1.79,12.83,12.83,0,0,1-2.21,1.36q-1.19.58-2.14,1,1.26.1,2.52.14t2.52,0q-.1.48-.19.9a2.94,2.94,0,0,1-.27.78,1.4,1.4,0,0,1-.53.56,1.78,1.78,0,0,1-.92.2l-1.05,0-1.33,0h-1.29a5.07,5.07,0,0,1-1-.07,2.5,2.5,0,0,1-1.94-1.17A4.13,4.13,0,0,1,208.26,69Zm2.28-.44q.82-.41,1.68-.9a16.23,16.23,0,0,0,1.67-1.09,7.82,7.82,0,0,0,1.39-1.33,4.67,4.67,0,0,0,.87-1.68,3.63,3.63,0,0,0-1.82.49,7.46,7.46,0,0,0-1.6,1.22,9.35,9.35,0,0,0-1.29,1.61A12.33,12.33,0,0,0,210.54,68.59Z"/><path class="cls-1" d="M223.49,60.05h2.18a4.21,4.21,0,0,1-.32,1.05,8.48,8.48,0,0,0-.39,1q1.56,0,3.14,0t3.15-.14c-.11.39-.23.76-.34,1.12a4.94,4.94,0,0,1-.48,1.05,10.42,10.42,0,0,1-1.17.6,2.55,2.55,0,0,0-1,.77q-.65.78-1.28,1.68a3.6,3.6,0,0,0-.66,2q-.1.34.39.48a6.21,6.21,0,0,0,1.17.19,13.45,13.45,0,0,0,1.36,0l.88,0a6.92,6.92,0,0,1-.54,1.31l-.68,1.28a6.49,6.49,0,0,0-1.24,0q-.63.05-1.28.05a3.57,3.57,0,0,1-2.48-.68,3.38,3.38,0,0,1-.71-2.48,2.81,2.81,0,0,1,.36-1.19,11.68,11.68,0,0,1,.85-1.43q.49-.71,1-1.38t.82-1l-.54,0-.54,0a2.62,2.62,0,0,0-.83.1,1,1,0,0,0-.46.32,2,2,0,0,0-.29.53c-.08.2-.19.44-.32.71q-.58,0-1.16,0h-1.16c.07-.2.22-.61.46-1.21s.49-1.23.76-1.89.54-1.26.8-1.8A2.81,2.81,0,0,1,223.49,60.05Z"/><path class="cls-1" d="M240,59.78h.31a1.59,1.59,0,0,1,.31,0,6.62,6.62,0,0,1-1,1.33,4.14,4.14,0,0,0-.9,1.39q.24,1.19.6,2.38a8.5,8.5,0,0,1,.36,2.45q0,.27,0,.71a2.68,2.68,0,0,1-.14.71,8.14,8.14,0,0,1-.54,1.09,7.46,7.46,0,0,1-.78,1.09,5.24,5.24,0,0,1-1,.88,2.85,2.85,0,0,1-1.09.48,10.61,10.61,0,0,1-2.7.2,21.93,21.93,0,0,0-2.74,0c0-.14.11-.34.19-.61s.18-.55.29-.83a5.76,5.76,0,0,1,.36-.75.8.8,0,0,1,.39-.39l.6-.07.93-.05,1,0a5.21,5.21,0,0,0,.85-.08,1.26,1.26,0,0,0,.85-.42,8.44,8.44,0,0,0,.51-.8,4.22,4.22,0,0,0,.31-.68,2.37,2.37,0,0,0,.1-.75,4.58,4.58,0,0,0-.12-1.05c-.08-.34-.16-.69-.25-1.05a7.06,7.06,0,0,0-.93.9q-.42.49-.83,1a9.23,9.23,0,0,1-1.26-.29c-.41-.12-.8-.27-1.19-.43l1.67-2q.82-1,1.6-2.06l.38-.53q.24-.32.51-.63t.54-.56a1.42,1.42,0,0,1,.48-.32,5,5,0,0,1,1.19-.24Q239.54,59.78,240,59.78Z"/><path class="cls-2" d="M264.62,60.84l1,0s1.25,0,3,1.75,3.75,3.75,6.5,3l3-.9.59,1.3c-1,.35-1.59,1-1.49,1.59.13.77,1.37,1.21,2.78,1s2.45-1,2.33-1.81-1-1.1-2.21-1h0l-.65-1.44,7.11-2.23.58,1.29c-1,.35-1.59,1-1.49,1.59.13.77,1.37,1.21,2.78,1s2.45-1,2.32-1.81-1-1.1-2.21-1h0l-.65-1.44,5.88-1.83,0,.08.58,1.29c-1,.35-1.59,1-1.49,1.59.13.77,1.37,1.21,2.78,1s2.45-1,2.33-1.81-1-1.1-2.21-1h0l-.65-1.44,7-2.25.58,1.29c-1,.35-1.59,1-1.49,1.59.13.77,1.37,1.21,2.78,1s2.45-1,2.32-1.81-1-1.1-2.21-1h0l-.66-1.47,7-2.21.59,1.3c-1,.35-1.59,1-1.49,1.59.13.77,1.37,1.21,2.78,1s2.45-1,2.33-1.81-1-1.1-2.21-1h0l-.65-1.44h0L318.5,52l.59,1.32c-1,.35-1.59,1-1.49,1.59.13.77,1.37,1.21,2.78,1s2.45-1,2.32-1.81-1-1.1-2.2-1h0l-.66-1.47,6.24-2a8.57,8.57,0,0,0,3.25-3.25c1.26-2.25,2.25-6.75,0-10,0,0-2.25-4.75-9.5-4.25s-9.25,7.75-13.5,9.25-12-9.75-29-7.25c0,0,.25,6.75-4,9.5a25.59,25.59,0,0,1-8.25,3.5l-135.75-2.5s-6.5-1.5-5.25-10,11.53-12.47,22.5-13.25c8.17-.58,2.25-8.58-1.75-10.75-4.15-2.25-8.64-4.46-13.25-4.5C122.74,6,104.33,16.38,87.83,16.38c-17.5,0-27.76-15.25-55-15.25C4.58,1.13,1.33,48,1.33,53.42S.08,103.88,25.08,103.88s47.25-13.5,57.5-13.5,27.81,11,40.15,6.75,1.35-11.25,1.35-11.25-13.25-2.75-13.75-10L103,75.66c0,3,.82,5.89,3.06,7.71,6.75,5.5,14.56,7.75,16.65,7.5s1.6,3-3.15,4-30.5-7.75-37.25-7.75-38.25,14.25-46.25,14.25-4.34-7.29-1.75-9.25S47.28,84.24,45.12,69.9s-7.86-33.24,4.81-39.24,26,4.67,32.33,6,17,2.33,24,0,10-.33,8.67,3.67a27.1,27.1,0,0,0-.5,6l149.68,3.32c1.29,0,1.15,8,.72,9.64"/></svg>